<div ng-transclude></div><?xml version="1.0" encoding="utf-8"?>
        <!-- Generator: Adobe Illustrator 21.0.2, SVG Export Plug-In . SVG Version: 6.00 Build 0)  -->
        <!DOCTYPE svg PUBLIC "-//W3C//DTD SVG 1.1//EN" "http://www.w3.org/Graphics/SVG/1.1/DTD/svg11.dtd">
<svg version="1.1" id="Layer_2" xmlns="http://www.w3.org/2000/svg" xmlns:xlink="http://www.w3.org/1999/xlink" x="0px" y="0px" viewBox="0 0 1295.3 1722.5"
	 style="enable-background:new 0 0 1295.3 1722.5;" xml:space="preserve" ng-click="click($event)">
<style type="text/css" id="dvhb_metro_style_inline">
	.st0{fill:none;stroke:#FFEC7F;stroke-width:7;stroke-miterlimit:10;}
	.st1{fill:none;stroke:#78F186;stroke-width:7;stroke-miterlimit:10;}
	.st2{fill:none;stroke:#BD7DD4;stroke-width:7;stroke-miterlimit:10;}
	.st3{fill:none;stroke:#FF7D74;stroke-width:7;stroke-miterlimit:10;}
	.st4{fill:none;stroke:#57B1F8;stroke-width:7;stroke-miterlimit:10;}
	.st5{fill:#FFFFFF;stroke:#57B1F8;stroke-width:4;stroke-miterlimit:10;}
	.st6{enable-background:new    ;}
	.st7{font-family:'PTSans-Regular';}
	.st8{font-size:22px;}
	.st9{fill:#1B75BC;}
	.st10{fill:#FFFFFF;stroke:#FF7D74;stroke-width:4;stroke-miterlimit:10;}
	.st11{fill:#EF4138;}
	.st12{fill:#FFFFFF;stroke:#BD7DD4;stroke-width:4;stroke-miterlimit:10;}
	.st13{fill:#804098;}
	.st14{fill:#FFFFFF;stroke:#78F186;stroke-width:4;stroke-miterlimit:10;}
	.st15{fill:#3BB54A;}
	.st16{fill:#FFFFFF;stroke:#FFEC7F;stroke-width:4;stroke-miterlimit:10;}
	.st17{fill:#FBB043;}
	.st18{fill:#FFFFFF;stroke:#57B1F8;stroke-width:5;stroke-miterlimit:10;}
	.st19{fill:#FFFFFF;stroke:#FFEC7F;stroke-width:5;stroke-miterlimit:10;}
	.st20{fill:#FFFFFF;stroke:#BD7DD4;stroke-width:5;stroke-miterlimit:10;}
	.st21{fill:#FFFFFF;stroke:#78F186;stroke-width:5;stroke-miterlimit:10;}
	.st22{fill:#FFFFFF;stroke:#FF7D74;stroke-width:5;stroke-miterlimit:10;}
	.st23{fill:none;stroke:#FFFFFF;stroke-width:4;stroke-miterlimit:10;}
	.st24{fill:none;stroke:#FFFFFF;stroke-width:4;stroke-linecap:round;stroke-linejoin:round;stroke-miterlimit:10;}
	.st25{fill:#FFFFFF;}
	.st26{display:none;enable-background:new;}
</style>

<g>
	<path class="st0" d="M1112.6,1137.5V942.9c0-14.1-11.4-25.5-25.5-25.5H465.5"/>
	<path class="st1" d="M146.6,663.7l126.6,126.6c9.6,9.6,22.6,15,36.1,14.9l553.3-0.2c14.1,0,25.5,11.4,25.5,25.5v660.7"
		/>
	<path class="st2" d="M327.9,326.9v315.4c0,6.7,2.6,13.2,7.4,17.9l61.9,62.6c9.4,9.6,14.7,22.4,14.7,35.9v113.9
		c0,13.5,5.4,26.5,14.9,36.1l222.4,222.4c9.6,9.6,14.9,22.5,14.9,36.1v137.2"/>
	<path class="st3" d="M720.1,163v732.8c0,18.2-9.7,35.1-25.5,44.2l-453.3,261.6c-15.8,9.1-25.5,26-25.5,44.2v249.4"/>
	<path class="st4" d="M524,160.5v428.7c0,13.4,5.3,26.3,14.7,35.9l26.5,26.8c9.4,9.6,14.7,22.4,14.7,35.9v159.6
		c0,18.2-9.7,35.1-25.5,44.2l-89.1,51.5c-15.8,9.1-25.5,26-25.5,44.2v505.3"/>
</g>

<g id="l1">
	<g id="s1l1">
		<circle class="st5" cx="524" cy="160.5" r="4.3"/>
		<text transform="matrix(1 0 0 1 536.1736 166.4815)" class="st6 st7 st8">Парнас</text>
		<circle class="st9" cx="524" cy="160.5" r="8.8"/>
	</g>
	<g id="s2l1">
		<text transform="matrix(1 0 0 1 536.1736 207.1491)" class="st6 st7 st8">Проспект</text>
		<text transform="matrix(1 0 0 1 536.1736 227.1491)" class="st6 st7 st8">Просвещения</text>
		<text transform="matrix(1 0 0 1 536.1736 207.1491)" class="st26 st6 st7 st8">Проспект Просвещения</text>
		<circle class="st5" cx="524" cy="202.4" r="4.3"/>
		<circle class="st9" cx="524" cy="202.4" r="8.8"/>
	</g>
	<g id="s3l1">
		<circle class="st5" cx="524" cy="261.5" r="4.3"/>
		<text transform="matrix(1 0 0 1 536.1736 267.482)" class="st6 st7 st8">Озерки</text>
		<circle class="st9" cx="524" cy="261.5" r="8.8"/>
	</g>
	<g id="s4l1">
		<circle id="circle375" class="st5" cx="524" cy="303.4" r="4.3"/>
		<text id="text377" transform="matrix(1 0 0 1 536.1736 308.3347)" class="st6 st7 st8">Удельная</text>
		<circle id="circle143_38_" class="st9" cx="524" cy="303.4" r="8.8"/>
	</g>
	<g id="s5l1">
		<circle class="st5" cx="524" cy="345" r="4.3"/>
		<text transform="matrix(1 0 0 1 536.1736 349.0407)" class="st6 st7 st8">Пионерская</text>
		<circle class="st9" cx="524" cy="345" r="8.8"/>
	</g>
	<g id="s6l1">
		<circle class="st5" cx="524" cy="385.7" r="4.3"/>
		<text transform="matrix(1 0 0 1 536.1736 391.3618)" class="st6 st7 st8">Чёрная речка</text>
		<circle class="st9" cx="524" cy="385.7" r="8.8"/>
	</g>
	<g id="s7l1">
		<circle class="st5" cx="524" cy="514.9" r="4.3"/>
		<text transform="matrix(1 0 0 1 536.1736 520.2487)" class="st6 st7 st8">Петроградская</text>
		<circle class="st9" cx="524" cy="514.9" r="8.8"/>
	</g>
	<g id="s8l1">
		<circle id="circle399" class="st5" cx="538.8" cy="625.1" r="4.3"/>
		<text id="text401" transform="matrix(1 0 0 1 545.8508 616.2609)" class="st6 st7 st8">Горьковская</text>
		<circle id="circle143_42_" class="st9" cx="538.8" cy="625.1" r="8.8"/>
	</g>
	<g id="s9l1">
		<text transform="matrix(1 0 0 1 487.1342 763.489)" class="st6 st7 st8">Невский</text>
		<text transform="matrix(1 0 0 1 480.9342 783.489)" class="st6 st7 st8">проспект</text>
		<text transform="matrix(1 0 0 1 480.9342 783.489)" class="st26 st6 st7 st8">Невский проспект</text>
		<circle class="st18" cx="580" cy="789.7" r="8.6"/>
		<circle class="st9" cx="580" cy="789.7" r="11.1"/>
	</g>
	<g id="s10l1">
		<text transform="matrix(1 0 0 1 493.1047 948.6312)" class="st6 st7 st8">Сенная площадь</text>
		<circle class="st18" cx="476.7" cy="936.5" r="8.6"/>
		<circle class="st9" cx="476.7" cy="936.5" r="11.1"/>
	</g>
	<g id="g1l1">
		<text transform="matrix(1 0 0 1 254.203 1056.993)" class="st6 st7 st8">Технологический</text>
		<text transform="matrix(1 0 0 1 335.703 1076.993)" class="st6 st7 st8">институт</text>
		<g id="s11c1l1">
			<text transform="matrix(1 0 0 1 335.703 1076.993)" class="st26 st6 st7 st8">Технологический институт-1</text>
			<circle class="st22" cx="429" cy="1093.2" r="8.6"/>
			<circle class="st11" cx="429" cy="1093.2" r="11.1"/>
		</g>
		<g id="s11c2l1">
			<text transform="matrix(1 0 0 1 335.703 1076.993)" class="st26 st6 st7 st8">Технологический институт-2</text>
			<circle class="st18" cx="439.9" cy="1074.1" r="8.6"/>
			<circle class="st9" cx="439.9" cy="1074.1" r="11.1"/>
		</g>
	</g>
	<g id="s12l1">
		<circle class="st5" cx="439.9" cy="1174.6" r="4.3"/>
		<text transform="matrix(1 0 0 1 452.0878 1180.0643)" class="st6 st7 st8">Фрунзенская</text>
		<circle class="st9" cx="439.9" cy="1174.6" r="8.8"/>
	</g>
	<g id="s13l1">
		<circle class="st5" cx="439.9" cy="1227.4" r="4.3"/>
		<text transform="matrix(1 0 0 1 452.0878 1232.7468)" class="st6 st7 st8">Московские Ворота</text>
		<circle class="st9" cx="439.9" cy="1227.4" r="8.8"/>
	</g>
	<g id="s14l1">
		<circle class="st5" cx="439.9" cy="1280.8" r="4.3"/>
		<text transform="matrix(1 0 0 1 452.0878 1286.2428)" class="st6 st7 st8">Электросила</text>
		<circle class="st9" cx="439.9" cy="1280.8" r="8.8"/>
	</g>
	<g id="s15l1">
		<circle class="st5" cx="439.9" cy="1333.5" r="4.3"/>
		<text transform="matrix(1 0 0 1 452.0878 1338.9611)" class="st6 st7 st8">Парк Победы</text>
		<circle class="st9" cx="439.9" cy="1333.5" r="8.8"/>
	</g>
	<g id="s16l1">
		<text transform="matrix(1 0 0 1 452.0878 1392.064)" class="st6 st7 st8">Московская</text>
		<circle class="st5" cx="439.9" cy="1386.5" r="4.3"/>
		<circle class="st9" cx="439.9" cy="1386.5" r="8.8"/>
	</g>
	<g id="s17l1">
		<text transform="matrix(1 0 0 1 452.0878 1445.4783)" class="st6 st7 st8">Звёздная</text>
		<circle class="st5" cx="439.9" cy="1439.3" r="4.3"/>
		<circle class="st9" cx="439.9" cy="1439.3" r="8.8"/>
	</g>
	<g id="s18l1">
		<text transform="matrix(1 0 0 1 452.0878 1498.0642)" class="st6 st7 st8">Купчино</text>
		<circle class="st5" cx="439.9" cy="1492.6" r="4.3"/>
		<circle class="st9" cx="439.9" cy="1492.6" r="8.8"/>
	</g>
</g>

<g id="l2">
	<g id="s1l2">
		<text transform="matrix(1 0 0 1 732.361 166.4815)" class="st6 st7 st8">Девяткино</text>
		<circle class="st10" cx="720.1" cy="160.5" r="4.3"/>
		<circle class="st11" cx="720.1" cy="160.5" r="8.8"/>
	</g>
	<g id="s2l2">
		<text transform="matrix(1 0 0 1 732.3612 220.8355)" class="st6 st7 st8">Гражданский</text>
		<text transform="matrix(1 0 0 1 732.3612 240.8355)" class="st6 st7 st8">проспект</text>
		<text transform="matrix(1 0 0 1 732.3612 240.8355)" class="st26 st6 st7 st8">Гражданский проспект</text>
		<circle class="st10" cx="720.1" cy="215.6" r="4.3"/>
		<circle class="st11" cx="720.1" cy="215.6" r="8.8"/>
	</g>
	<g id="s3l2">
		<text transform="matrix(1 0 0 1 732.361 294.4317)" class="st6 st7 st8">Академическая</text>
		<circle class="st10" cx="720.1" cy="288.6" r="4.3"/>
		<circle class="st11" cx="720.1" cy="288.6" r="8.8"/>
	</g>
	<g id="s4l2">
		<text transform="matrix(1 0 0 1 732.361 348.7072)" class="st6 st7 st8">Политехническая</text>
		<circle class="st10" cx="720.1" cy="343.6" r="4.3"/>
		<circle class="st11" cx="720.1" cy="343.6" r="8.8"/>
	</g>
	<g id="s4l2">
		<text transform="matrix(1 0 0 1 732.361 404.372)" class="st6 st7 st8">Площадь Мужества</text>
		<circle class="st10" cx="720.1" cy="398.6" r="4.3"/>
		<circle class="st11" cx="720.1" cy="398.6" r="8.8"/>
	</g>
	<g id="s5l2">
		<text transform="matrix(1 0 0 1 732.4049 459.1517)" class="st6 st7 st8">Лесная</text>
		<circle class="st10" cx="720.1" cy="453.6" r="4.3"/>
		<circle class="st11" cx="720.1" cy="453.6" r="8.8"/>
	</g>
	<g id="s6l2">
		<text transform="matrix(1 0 0 1 732.361 569.1451)" class="st6 st7 st8">Площадь Ленина</text>
		<circle class="st10" cx="720.1" cy="563.5" r="4.3"/>
		<circle class="st11" cx="720.1" cy="563.5" r="8.8"/>
	</g>
	<g id="s7l2">
		<text transform="matrix(1 0 0 1 732.361 719.2122)" class="st6 st7 st8">Чернышевская</text>
		<circle class="st10" cx="720.1" cy="714.3" r="4.3"/>
		<circle class="st11" cx="720.1" cy="714.3" r="8.8"/>
	</g>
	<g id="s8l2">
		<text transform="matrix(1 0 0 1 732.361 777.1652)" class="st6 st7 st8">Площадь Восстания</text>
		<circle class="st22" cx="720.3" cy="789.7" r="8.6"/>
		<circle class="st11" cx="720.3" cy="789.7" r="11.1"/>
	</g>
	<g id="s9l2">
		<text transform="matrix(1 0 0 1 695.8652 968.4749)" class="st6 st7 st8">Владимирская</text>
		<circle class="st22" cx="699.3" cy="936.4" r="8.6"/>
		<circle class="st11" cx="699.3" cy="936.4" r="11.1"/>
	</g>
	<g id="s10l2">
		<text transform="matrix(1 0 0 1 574.7297 1028.7468)" class="st6 st7 st8">Пушкинская</text>
		<circle class="st22" cx="558.6" cy="1018.5" r="8.6"/>
		<circle class="st11" cx="558.6" cy="1018.5" r="11.1"/>
	</g>
	<g id="s11l2">
		<text transform="matrix(1 0 0 1 176.151 1165.24)" class="st6 st7 st8">Балтийская</text>
		<circle class="st10" cx="289.3" cy="1173.9" r="4.3"/>
		<circle class="st11" cx="289.3" cy="1173.9" r="8.8"/>
	</g>
	<g id="s12l2">
		<text transform="matrix(1 0 0 1 227.9368 1252.0062)" class="st6 st7 st8">Нарвская</text>
		<circle class="st10" cx="215.8" cy="1246.3" r="4.3"/>
		<circle class="st11" cx="215.8" cy="1246.3" r="8.8"/>
	</g>
	<g id="s13l2">
		<text transform="matrix(1 0 0 1 228.0746 1305.478)" class="st6 st7 st8">Кировский</text>
		<text transform="matrix(1 0 0 1 228.0746 1325.478)" class="st6 st7 st8">завод</text>
		<text transform="matrix(1 0 0 1 228.0746 1325.478)" class="st26 st6 st7 st8">Кировский завод</text>
		<circle class="st10" cx="215.8" cy="1300" r="4.3"/>
		<circle class="st11" cx="215.8" cy="1300" r="8.8"/>
	</g>
	<g id="s14l2">
		<text transform="matrix(1 0 0 1 228.0746 1375.478)" class="st6 st7 st8">Автово</text>
		<circle class="st10" cx="215.8" cy="1370.5" r="4.3"/>
		<circle class="st11" cx="215.8" cy="1370.5" r="8.8"/>
	</g>
	<g id="s15l2">
		<text transform="matrix(1 0 0 1 228.0746 1427.4783)" class="st6 st7 st8">Ленинский</text>
		<text transform="matrix(1 0 0 1 228.0746 1447.4783)" class="st6 st7 st8">проспект</text>
		<text transform="matrix(1 0 0 1 228.0746 1447.4783)" class="st26 st6 st7 st8">Ленинский проспект</text>
		<circle class="st10" cx="215.8" cy="1422.3" r="4.3"/>
		<circle class="st11" cx="215.8" cy="1422.3" r="8.8"/>
	</g>
	<g id="s16l2">
		<text transform="matrix(1 0 0 1 228.0746 1498.0642)" class="st6 st7 st8">Проспект</text>
		<text transform="matrix(1 0 0 1 228.0746 1518.0642)" class="st6 st7 st8">Ветеранов</text>
		<text transform="matrix(1 0 0 1 228.0746 1518.0642)" class="st26 st6 st7 st8">Проспект Ветеранов</text>
		<circle class="st10" cx="215.8" cy="1492.5" r="4.3"/>
		<circle class="st11" cx="215.8" cy="1492.5" r="8.8"/>
	</g>
</g>

<g id="l3">
	<g id="s1l3">
		<text transform="matrix(1 0 0 1 339.5763 332.9255)" class="st6 st7 st8">Комендантский</text>
		<text transform="matrix(1 0 0 1 339.5763 352.9255)" class="st6 st7 st8">проспект</text>
		<text transform="matrix(1 0 0 1 339.5763 352.9255)" class="st26 st6 st7 st8">Комендантский проспект</text>
		<circle class="st12" cx="327.9" cy="326.9" r="4.3"/>
		<circle class="st13" cx="327.9" cy="326.9" r="8.8"/>
	</g>
	<g id="s2l3">
		<text transform="matrix(1 0 0 1 339.5763 391.3117)" class="st6 st7 st8">Старая Деревня</text>
		<circle class="st12" cx="327.9" cy="385.9" r="4.3"/>
		<circle class="st13" cx="327.9" cy="385.9" r="8.8"/>
	</g>
	<g id="s3l3">
		<text transform="matrix(1 0 0 1 339.5763 502.6262)" class="st6 st7 st8">Крестовский</text>
		<text transform="matrix(1 0 0 1 339.5763 522.6262)" class="st6 st7 st8">остров</text>
		<text transform="matrix(1 0 0 1 339.5763 522.6262)" class="st26 st6 st7 st8">Крестовский остров</text>
		<circle class="st12" cx="327.9" cy="497" r="4.3"/>
		<circle class="st13" cx="327.9" cy="497" r="8.8"/>
	</g>
	<g id="s4l3">
		<text transform="matrix(1 0 0 1 339.5761 586.9813)" class="st6 st7 st8">Чкаловская</text>
		<circle class="st12" cx="327.9" cy="580.9" r="4.3"/>
		<circle class="st13" cx="327.9" cy="580.9" r="8.8"/>
	</g>
	<g id="s5l3">
		<text transform="matrix(1 0 0 1 339.5762 639.3541)" class="st6 st7 st8">Спортивная</text>
		<circle class="st12" cx="327.9" cy="632.5" r="4.3"/>
		<circle class="st13" cx="327.9" cy="632.5" r="8.8"/>
	</g>
	<g id="s6l3">
		<text transform="matrix(1 0 0 1 241.7154 845.4161)" class="st6 st7 st8">Адмиралтейская</text>
		<circle class="st12" cx="412.2" cy="840.5" r="4.3"/>
		<circle class="st13" cx="412.2" cy="840.5" r="8.8"/>
	</g>
	<g id="s7l3">
		<text transform="matrix(1 0 0 1 357.8376 948.9246)" class="st6 st7 st8">Садовая</text>
		<circle class="st20" cx="454.5" cy="936.5" r="8.6"/>
		<circle class="st13" cx="454.5" cy="936.5" r="11.1"/>
	</g>
	<g id="s8l3">
		<text transform="matrix(1 0 0 1 574.7297 1047.5021)" class="st6 st7 st8">Звенигородская</text>
		<circle class="st20" cx="558.6" cy="1040.5" r="8.6"/>
		<circle class="st13" cx="558.6" cy="1040.5" r="11.1"/>
	</g>
	<g id="s9l3">
		<text transform="matrix(1 0 0 1 645.4562 1107.3885)" class="st6 st7 st8">Обводный канал</text>
		<circle class="st12" cx="634.6" cy="1117.3" r="4.3"/>
		<circle class="st13" cx="634.6" cy="1117.3" r="8.8"/>
	</g>
	<g id="s10l3">
		<text transform="matrix(1 0 0 1 675.9786 1180.064)" class="st6 st7 st8">Волковская</text>
		<circle class="st12" cx="664.1" cy="1174.7" r="4.3"/>
		<circle class="st13" cx="664.1" cy="1174.7" r="8.8"/>
	</g>
	<g id="s11l3">
		<text transform="matrix(1 0 0 1 675.9786 1243.7491)" class="st6 st7 st8">Бухарестская</text>
		<circle class="st12" cx="664.1" cy="1238.2" r="4.3"/>
		<circle class="st13" cx="664.1" cy="1238.2" r="8.8"/>
	</g>
	<g id="s12l3">
		<text transform="matrix(1 0 0 1 675.9786 1307.2493)" class="st6 st7 st8">Международная</text>
		<circle class="st12" cx="664.1" cy="1301.8" r="4.3"/>
		<circle class="st13" cx="664.1" cy="1301.8" r="8.8"/>
	</g>
</g>

<g id="l4">
	<g id="s1l4">
		<text transform="matrix(1 0 0 1 22.0684 685.6959)" class="st6 st7 st8">Приморская</text>
		<circle class="st14" cx="148.7" cy="665.5" r="4.3"/>
		<circle class="st15" cx="148.7" cy="665.5" r="8.8"/>
	</g>
	<g id="s2l4">
		<text transform="matrix(1 0 0 1 604.2103 773.1876)" class="st6 st7 st8">Гостиный</text>
		<text transform="matrix(1 0 0 1 604.2103 793.1876)" class="st6 st7 st8">Двор</text>
		<text transform="matrix(1 0 0 1 604.2103 793.1876)" class="st26 st6 st7 st8">Гостиный Двор</text>
		<circle class="st21" cx="595.6" cy="805.3" r="8.6"/>
		<circle class="st15" cx="595.6" cy="805.3" r="11.1"/>
	</g>
	<g id="s3l4">
		<text transform="matrix(1 0 0 1 742.588 829.562)" class="st6 st7 st8">Маяковская</text>
		<circle class="st21" cx="735.9" cy="805.3" r="8.6"/>
		<circle class="st15" cx="735.9" cy="805.3" r="11.1"/>
	</g>
	<g id="g1l4">
		<text transform="matrix(1 0 0 1 904.1155 859.4644)" class="st6 st7 st8">Площадь</text>
		<text transform="matrix(1 0 0 1 904.1155 879.4644)" class="st6 st7 st8">Александра</text>
		<text transform="matrix(1 0 0 1 904.1155 899.4644)" class="st6 st7 st8">Невского</text>
		<g id="s4c1l4">
			<text transform="matrix(1 0 0 1 904.1155 899.4644)" class="st26 st6 st7 st8">Площадь Александра Невского-1</text>
			<circle class="st21" cx="888" cy="901.8" r="8.6"/>
			<circle class="st15" cx="888" cy="901.8" r="11.1"/>
		</g>
		<g id="s4c2l4">
			<text transform="matrix(1 0 0 1 904.1155 899.4644)" class="st26 st6 st7 st8">Площадь Александра Невского-2</text>
			<circle class="st19" cx="903.6" cy="917.4" r="8.6"/>
			<circle class="st17" cx="903.6" cy="917.4" r="11.1"/>
		</g>
	</g>
	<g id="s5l4">
		<text transform="matrix(1 0 0 1 900.3848 1142.9668)" class="st6 st7 st8">Елизаровская</text>
		<circle class="st14" cx="888.2" cy="1137.4" r="4.3"/>
		<circle class="st15" cx="888.2" cy="1137.4" r="8.8"/>
	</g>
	<g id="s6l4">
		<text transform="matrix(1 0 0 1 900.3848 1231.4668)" class="st6 st7 st8">Ломоносовская</text>
		<circle class="st14" cx="888.2" cy="1225.9" r="4.3"/>
		<circle class="st15" cx="888.2" cy="1225.9" r="8.8"/>
	</g>
	<g id="s7l4">
		<text transform="matrix(1 0 0 1 900.3848 1320.2345)" class="st6 st7 st8">Пролетарская</text>
		<circle class="st14" cx="888.2" cy="1314.4" r="4.3"/>
		<circle class="st15" cx="888.2" cy="1314.4" r="8.8"/>
	</g>
	<g id="s8l4">
		<text transform="matrix(1 0 0 1 900.3848 1408.4669)" class="st6 st7 st8">Обухово</text>
		<circle class="st14" cx="888.2" cy="1403.2" r="4.3"/>
		<circle class="st15" cx="888.2" cy="1403.2" r="8.8"/>
	</g>
	<g id="s9l4">
		<text transform="matrix(1 0 0 1 900.3848 1496.7034)" class="st6 st7 st8">Рыбацкое</text>
		<circle class="st14" cx="888.2" cy="1491.4" r="4.3"/>
		<circle class="st15" cx="888.2" cy="1491.4" r="8.8"/>
	</g>
</g>

<g id="l5">
	<g id="s1l5">
		<text transform="matrix(1 0 0 1 430.8765 898.6481)" class="st6 st7 st8">Спасская</text>
		<circle class="st19" cx="465.5" cy="917.4" r="8.6"/>
		<circle class="st17" cx="465.5" cy="917.4" r="11.1"/>
	</g>
	<g id="s2l5">
		<text transform="matrix(1 0 0 1 576.3688 898.5831)" class="st6 st7 st8">Достоевская</text>
		<circle class="st19" cx="688.1" cy="917.4" r="8.6"/>
		<circle class="st17" cx="688.1" cy="917.4" r="11.1"/>
	</g>
	<g id="s3l5">
		<text transform="matrix(1 0 0 1 757.7908 883.6472)" class="st6 st7 st8">Лиговский</text>
		<text transform="matrix(1 0 0 1 764.5908 903.6472)" class="st6 st7 st8">проспект</text>
		<text transform="matrix(1 0 0 1 764.5908 903.6472)" class="st26 st6 st7 st8">Лиговский проспект</text>
		<circle class="st16" cx="808.1" cy="917.4" r="4.3"/>
		<circle class="st17" cx="808.1" cy="917.4" r="8.8"/>
	</g>
	<g id="s4l5">
		<text transform="matrix(1 0 0 1 1039.6428 903.4673)" class="st6 st7 st8">Новочеркасская</text>
		<circle class="st16" cx="1047.4" cy="917.4" r="4.3"/>
		<circle class="st17" cx="1047.4" cy="917.4" r="8.8"/>
	</g>
	<g id="s5l5">
		<text transform="matrix(1 0 0 1 1122.8853 973.03)" class="st6 st7 st8">Ладожская</text>
		<circle class="st16" cx="1112.3" cy="969" r="4.3"/>
		<circle class="st17" cx="1112.3" cy="969" r="8.8"/>
	</g>
	<g id="s6l5">
		<text transform="matrix(1 0 0 1 1122.8853 1047.811)" class="st6 st7 st8">Проспект</text>
		<text transform="matrix(1 0 0 1 1122.8853 1067.811)" class="st6 st7 st8">Большевиков</text>
		<text transform="matrix(1 0 0 1 1122.8853 1067.811)" class="st26 st6 st7 st8">Проспект Большевиков</text>
		<circle class="st16" cx="1112.3" cy="1043.9" r="4.3"/>
		<circle class="st17" cx="1112.3" cy="1043.9" r="8.8"/>
	</g>
	<g id="s7l5">
		<text transform="matrix(1 0 0 1 1122.8853 1141.9668)" class="st6 st7 st8">Улица Дыбенко</text>
		<circle class="st16" cx="1112.3" cy="1137.5" r="4.3"/>
		<circle class="st17" cx="1112.3" cy="1137.5" r="8.8"/>
	</g>
</g>

<g>
	<line class="st23" x1="580" y1="789.7" x2="595.6" y2="805.3"/>
	<line class="st23" x1="720.3" y1="789.7" x2="735.9" y2="805.3"/>
	<polygon class="st24" points="476.7,936.5 465.5,917.4 454.5,936.5 	"/>
	<line class="st23" x1="688.1" y1="917.4" x2="699.3" y2="936.4"/>
	<line class="st23" x1="558.6" y1="1018.5" x2="558.6" y2="1040.8"/>
	<circle class="st25" cx="454.5" cy="936.5" r="4.1"/>
	<circle class="st25" cx="465.5" cy="917.4" r="4.1"/>
	<circle class="st25" cx="688.1" cy="917.4" r="4.1"/>
	<circle class="st25" cx="720.3" cy="789.7" r="4.1"/>
	<circle class="st25" cx="699.3" cy="936.5" r="4.1"/>
	<circle class="st25" cx="476.7" cy="936.5" r="4.1"/>
	<line class="st23" x1="888" y1="901.8" x2="903.6" y2="917.4"/>
	<line class="st23" x1="429" y1="1093.2" x2="439.9" y2="1074.1"/>
	<circle class="st25" cx="888.1" cy="901.8" r="4.1"/>
	<circle class="st25" cx="903.6" cy="917.4" r="4.1"/>
	<circle class="st25" cx="558.6" cy="1018.5" r="4.1"/>
	<circle class="st25" cx="558.6" cy="1040.8" r="4.1"/>
	<circle class="st25" cx="429" cy="1093.2" r="4.1"/>
	<circle class="st25" cx="440.1" cy="1074.1" r="4.1"/>
	<circle class="st25" cx="580" cy="789.7" r="4.1"/>
	<circle class="st25" cx="595.6" cy="805.3" r="4.1"/>
	<circle class="st25" cx="735.9" cy="805.3" r="4.1"/>
</g>

<text id="text173" transform="matrix(1 0 0 1 860.9037 643.9249)" class="st6 st7 st8">© Студия Артемия Лебедева</text>

</svg>